<?xml version="1.0" encoding="UTF-8" standalone="no"?>
<!-- Created with Inkscape (http://www.inkscape.org/) -->

<svg
   xmlns:dc="http://purl.org/dc/elements/1.1/"
   xmlns:cc="http://creativecommons.org/ns#"
   xmlns:rdf="http://www.w3.org/1999/02/22-rdf-syntax-ns#"
   xmlns:svg="http://www.w3.org/2000/svg"
   xmlns="http://www.w3.org/2000/svg"
   xmlns:sodipodi="http://sodipodi.sourceforge.net/DTD/sodipodi-0.dtd"
   xmlns:inkscape="http://www.inkscape.org/namespaces/inkscape"
   width="80"
   height="120"
   viewBox="0 0 21.166666 31.75"
   version="1.1"
   id="svg8"
   inkscape:version="0.92.4 (5da689c313, 2019-01-14)"
   sodipodi:docname="Semilimes_icon.svg"
   inkscape:export-filename="C:\Users\flavi\Documents\Workspaces\Docker\NodeRed\node-red-contrib-Semilimes-connector\icons\semilimes_icon_in.png"
   inkscape:export-xdpi="96"
   inkscape:export-ydpi="96">
  <defs
     id="defs2" />
  <sodipodi:namedview
     id="base"
     pagecolor="#ffffff"
     bordercolor="#666666"
     borderopacity="1.0"
     inkscape:pageopacity="0.0"
     inkscape:pageshadow="2"
     inkscape:zoom="3.959798"
     inkscape:cx="-73.900684"
     inkscape:cy="92.393771"
     inkscape:document-units="mm"
     inkscape:current-layer="g868"
     showgrid="false"
     inkscape:window-width="1920"
     inkscape:window-height="1017"
     inkscape:window-x="-8"
     inkscape:window-y="-8"
     inkscape:window-maximized="1"
     units="px" />
  <metadata
     id="metadata5">
    <rdf:RDF>
      <cc:Work
         rdf:about="">
        <dc:format>image/svg+xml</dc:format>
        <dc:type
           rdf:resource="http://purl.org/dc/dcmitype/StillImage" />
        <dc:title />
      </cc:Work>
    </rdf:RDF>
  </metadata>
  <g
     inkscape:label="Livello 1"
     inkscape:groupmode="layer"
     id="layer1"
     transform="translate(0,-265.25)">
    <g
       id="g868"
       transform="matrix(-1,0,0,1,21.143588,-1.0102085)"
       style="fill:none;fill-opacity:1;stroke:#000000;stroke-opacity:1">
      <g
         id="g874"
         transform="translate(-0.77277848,-0.2825015)"
         style="stroke:#fdfdfd;stroke-opacity:1;fill:#ffffff;fill-opacity:1;stroke-width:0.2;stroke-miterlimit:4;stroke-dasharray:none">
        <path
           style="fill:#ffffff;fill-opacity:1;stroke:#fdfdfd;stroke-width:0.2;stroke-miterlimit:4;stroke-dasharray:none;stroke-opacity:1"
           d="m 15.967891,285.6147 c 2.961016,-1.36779 4.510618,-3.76888 4.499427,-6.97189 -0.0127,-3.64391 -2.369164,-6.54119 -5.927166,-7.28749 -1.718495,-0.36044 -3.794696,-0.12435 -4.000444,0.45472 -0.07029,0.19785 0.448858,3.47582 1.15365,7.28438 1.095319,5.38418 1.246414,7.16695 2.175846,7.00052 0.491922,0.0418 1.436327,-0.17421 2.098687,-0.48033 z"
           id="path826"
           inkscape:connector-curvature="0"
           sodipodi:nodetypes="cscccccc" />
        <path
           style="fill:#ffffff;fill-opacity:1;stroke:#fdfdfd;stroke-width:0.2;stroke-miterlimit:4;stroke-dasharray:none;stroke-opacity:1"
           d="m 6.6981764,279.22071 c -2.9610172,1.3678 -4.5106189,3.76889 -4.4994281,6.9719 0.012691,3.64391 2.369164,6.54118 5.9271655,7.28749 1.7184962,0.36044 3.7946952,0.12435 4.0004452,-0.45472 0.07029,-0.19785 -0.448859,-3.47583 -1.15365,-7.28438 -1.0953194,-4.65737 -1.4789966,-7.05067 -2.1758466,-7.00054 -0.4919214,-0.0418 -1.4363278,0.17421 -2.098686,0.48033 z"
           id="path826-9"
           inkscape:connector-curvature="0"
           sodipodi:nodetypes="cscccccc" />
      </g>
    </g>
  </g>
</svg>
